<?xml-script type="text/javascript" href="script.js"?>
<svg version="1.1" id="Layer_1" xmlns="http://www.w3.org/2000/svg" xmlns:xlink="http://www.w3.org/1999/xlink" x="0px" y="0px"
	 width="159.84px" height="159.84px" viewBox="0 0 159.84 159.84" style="enable-background:new 0 0 159.84 159.84;"
	 xml:space="preserve">
<defs>
	<style type="text/css">
		<![CDATA[
	.st0{clip-path:url(#SVGID_2_);}
	.st1{clip-path:url(#SVGID_4_);}
	.st2{clip-path:url(#SVGID_2_);fill:#233240;}
	.st3{fill:#FFFFFF;}
	.st4{fill:none;stroke:#714E77;stroke-width:6;stroke-linejoin:round;stroke-miterlimit:10;}
	.st5{opacity:0.75;clip-path:url(#SVGID_2_);enable-background:new    ;}
	.st6{clip-path:url(#SVGID_2_);fill:#FFFFFF;}
]]>
		.st4{
		stroke-dasharray: 800;
		stroke-dashoffset:0;
		-webkit-animation: dash 1.5s linear forwards;
		-moz-animation: dash 1.5s linear forwards;
		animation: dash 1.5s linear forwards;
		}
		@-webkit-keyframes dash{
			from{
				stroke-dashoffset: 800;
			}
			to{
				stroke-dashoffset: 0;
			}
		}
		@keyframes dash{
			from{
				stroke-dashoffset: 800;
			}
			to{
				stroke-dashoffset: 0;
			}
		}
	</style>
</defs>

<g>
	<g>
		<defs>
			<rect id="SVGID_1_" width="159.84" height="159.84"/>
		</defs>
		<clipPath id="SVGID_2_">
			<use xlink:href="#SVGID_1_"  style="overflow:visible;"/>
		</clipPath>
		<g class="st5">
			<g>
				<g>
					<defs>
						<rect id="SVGID_3_" width="159.84" height="159.838"/>
					</defs>
					<clipPath id="SVGID_4_">
						<use xlink:href="#SVGID_3_"  style="overflow:visible;"/>
					</clipPath>
					<g transform="matrix(1 0 0 1 0 2.910383e-011)" class="st1">
					</g>
				</g>
			</g>
		</g>
		<circle class="st2" cx="79.92" cy="79.92" r="62"/>
		<path id="back" class="st6" d="M112.907,65.896h9.368c0,0,2.935-12.147-7.293-20.171c-11.508-9.029-35.737-10.55-51.325-2.144
			C41.743,55.4,28.792,87.922,72.995,94.206l29.961,0.071v-3.039l-29.285-0.241c0,0-22.797-2.697-20.672-23.078
			c2.127-20.381,22.816-27.323,35.431-27.323C99.659,40.597,115.479,44.201,112.907,65.896"/>
		<path class="st6" d="M106.607,90.877c-0.015,0.133-0.03,0.262-0.047,0.393h9.073c2.438-11.625-4.491-23.191-29.021-26.679
			l-29.96-0.071v3.037L85.938,67.8C85.938,67.8,108.734,70.496,106.607,90.877"/>
		<path class="st6" d="M106.055,94.277c-3.961,17.673-23.142,23.134-35.024,23.134c-11.229,0-26.9-2.813-24.328-24.511h-9.369
			c0,0-2.934,12.146,7.291,20.173c11.509,9.026,35.74,10.551,51.328,2.143c8.703-4.692,15.992-12.653,18.85-20.938H106.055
			L106.055,94.277z"/>
		<polygon class="st6" points="90.688,46.254 76.778,112.424 69.153,112.424 82.968,46.254 		"/>
		<g class="st0">
			
				<image style="overflow:visible;opacity:0.75;enable-background:new    ;" width="161" height="161" xlink:href="A44D0038.png"  transform="matrix(1 0 0 1 -0.5796 -0.5801)">
			</image>
			<g>
				<path class="st3" d="M79.92,14.682c-35.829,0-64.875,29.046-64.875,64.875c0,35.83,29.046,64.875,64.875,64.875
					s64.875-29.045,64.875-64.875C144.795,43.728,115.749,14.682,79.92,14.682 M79.92,138.418
					c-32.509,0-58.862-26.354-58.862-58.861c0-32.508,26.354-58.861,58.862-58.861s58.862,26.353,58.862,58.861
					C138.782,112.066,112.428,138.418,79.92,138.418"/>
			</g>
		</g>
		<g class="st0">
			<path class="st4" d="M79.92,23.67c-31.065,0-56.25,25.185-56.25,56.25c0,31.067,25.185,56.25,56.25,56.25
				c31.066,0,56.25-25.183,56.25-56.25C136.17,48.854,110.986,23.67,79.92,23.67"/>
		</g>
	</g>
</g>
</svg>
