<?xml version="1.0" encoding="utf-8"?>
<!-- Generator: Adobe Illustrator 16.0.0, SVG Export Plug-In . SVG Version: 6.00 Build 0)  -->
<!DOCTYPE svg PUBLIC "-//W3C//DTD SVG 1.1//EN" "http://www.w3.org/Graphics/SVG/1.1/DTD/svg11.dtd">
<svg version="1.1" id="Layer_2" xmlns="http://www.w3.org/2000/svg" xmlns:xlink="http://www.w3.org/1999/xlink" x="0px" y="0px"
	 width="36.005px" height="72px" viewBox="0 0 36.005 72" enable-background="new 0 0 36.005 72" xml:space="preserve">
<path fill="#8B99B2" d="M0,0v36h36.005V0H0z M22.667,10.833c0,0-3.125-1.208-2.792,3.792h2.792V18L20,18.083v10.75h-4.667V18
	l-2.208,0.083v-3.167l2.208-0.083V11c0,0,0.172-3.167,2.669-3.667h4.664V10.833z"/>
<path fill="#3C5A9A" d="M0,36v36h36.005V36H0z M22.667,46.834c0,0-3.125-1.209-2.792,3.791h2.792V54L20,54.084v10.75h-4.667V54
	l-2.208,0.084v-3.167l2.208-0.083V47c0,0,0.172-3.166,2.669-3.666h4.664V46.834z"/>
</svg>
