<?xml version="1.0" encoding="utf-8"?>
<!-- Generator: Adobe Illustrator 16.0.0, SVG Export Plug-In . SVG Version: 6.00 Build 0)  -->
<!DOCTYPE svg PUBLIC "-//W3C//DTD SVG 1.1//EN" "http://www.w3.org/Graphics/SVG/1.1/DTD/svg11.dtd">
<svg version="1.1" xmlns="http://www.w3.org/2000/svg" xmlns:xlink="http://www.w3.org/1999/xlink" x="0px" y="0px"
	 width="463.944px" height="156.498px" viewBox="0 0 463.944 156.498" enable-background="new 0 0 463.944 156.498"
	 xml:space="preserve">
<g id="Layer_3" display="none">
	<rect x="-129.556" y="-145.002" display="inline" fill="#A86060" width="819" height="453"/>
</g>
<g id="Layer_2">
	<g>
		<rect x="2.444" y="42.998" fill="#FFFFFF" width="17" height="99"/>
		<path fill="#FFFFFF" d="M2.444,21.498c0,0-5.5-6,0-14c0,0,7.75-7.5,18.25,0l3.25,3.75l253.5,0.417c0,0,60-25.167,94.5,13.833
			c0,0,10,7,8.5,28.5h-17.5c0,0,5-42.5-45.5-44.5s-66,45-65.5,47s-6.5,38.5,37.5,45l9.5-43l-40-0.5l-0.5-5.411h41.5l8-32.089h12
			l-6,32.089c0,0,62,6.411,55.5,48.911h-17.5c0,0,5-36.089-39.5-42.5l-9,42.5h39.5v7h-41l-7.5,33.5h-13l6.5-34.5
			c0,0-103-21.5-26-88.5l-237-0.5c0,0-2,3-5.5,6S4.883,28.023,2.444,21.498z"/>
		<path fill="#FFFFFF" d="M349.944,108.498h18c0,0-16,48-85.5,48s-59.5-50-58-51s14.5,0,14.5,0s-3,64,73,40
			C311.944,145.498,336.06,140.626,349.944,108.498z"/>
		<path fill="#FFFFFF" d="M210.944,42.998v15.5c0,0-39.5-33-53.5,31.5c0,0-1.553,50.01,40.5,38.5l13-8l6.5,9.721
			c0,0-33.5,29.779-65,3.279c0,0-41.5-47.5,9-88C161.444,45.498,182.944,31.498,210.944,42.998z"/>
		<path fill="#FFFFFF" d="M116.944,121.498c0,0-39,32.5-55.5-19l60-24.5c0,0,1-39.569-41-39.535s-41.5,53.009-41.5,53.009
			s-0.5,63.525,65.5,50.525c0,0,12.5-4.945,19-11.223L116.944,121.498z M81.194,48.998c0,0,15.25,2.5,18.25,15
			c0,0,10.123,11.084-15,17l-24.5,10.109C59.944,91.107,52.444,57.998,81.194,48.998z"/>
		<path fill="#FFFFFF" d="M457.944,120.998c0,0-24.5,24.5-47.5,0c0,0-8.5-12-9-19l59-24c0,0,10-12.5-20.5-37
			c0,0-54.693-17.5-59.347,47.5c0,0-6.153,56.967,50.347,55.983c0,0,23.5-4.429,33-13.706L457.944,120.998z M402.444,66.498
			c14-30,34-9.5,34-9.5c9.5,12.5,0,20.5,0,20.5l-37,13.975C397.444,84.447,402.444,66.498,402.444,66.498z"/>
	</g>
</g>
</svg>
