<?xml version="1.0" encoding="utf-8"?>
<!-- Generator: Adobe Illustrator 16.0.0, SVG Export Plug-In . SVG Version: 6.00 Build 0)  -->
<!DOCTYPE svg PUBLIC "-//W3C//DTD SVG 1.1//EN" "http://www.w3.org/Graphics/SVG/1.1/DTD/svg11.dtd">
<svg version="1.1" id="Layer_2" xmlns="http://www.w3.org/2000/svg" xmlns:xlink="http://www.w3.org/1999/xlink" x="0px" y="0px"
	 width="36.005px" height="72.01px" viewBox="0 0 36.005 72.01" enable-background="new 0 0 36.005 72.01" xml:space="preserve">
<path fill="#B0D6E2" d="M0,0v36.005h36.005V0H0z M28.25,12.333l-0.667,0.833c0,0-1.167,1.208-1,3.083S24.666,25,16.5,26.5
	c-8.167,1.5-8.667-1.333-8.667-1.333s3.667,0.333,5.333-1.5c0,0-2.667-1.167-3.667-3c0,0,0.813,0.208,1.5-0.73
	c0,0-2.646-1.313-3.167-3.813c0,0,1.542,0.063,1.542-0.75c0,0-1.063-0.938-1.063-3.063s0.313-1.5,0.313-1.5s7.25,5,8.688,3.75
	c0,0,1.563-4.875,3.5-4.938s3.063,0.25,4.563,1.125l2.875-0.708l-1.417,1.583L28.25,12.333z"/>
<path fill="#2DAAE1" d="M0,36.005V72.01h36.005V36.005H0z M28.25,48.338l-0.667,0.834c0,0-1.167,1.208-1,3.083
	s-1.917,8.75-10.083,10.25c-8.167,1.5-8.667-1.333-8.667-1.333s3.667,0.334,5.333-1.5c0,0-2.667-1.166-3.667-3
	c0,0,0.813,0.208,1.5-0.729c0,0-2.646-1.313-3.167-3.813c0,0,1.542,0.063,1.542-0.75c0,0-1.063-0.938-1.063-3.063
	s0.313-1.5,0.313-1.5s7.25,5,8.688,3.75c0,0,1.563-4.875,3.5-4.938s3.063,0.25,4.563,1.125l2.875-0.708l-1.417,1.583L28.25,48.338z"
	/>
</svg>
