<?xml version="1.0" encoding="utf-8"?>
<!-- Generator: Adobe Illustrator 16.0.0, SVG Export Plug-In . SVG Version: 6.00 Build 0)  -->
<!DOCTYPE svg PUBLIC "-//W3C//DTD SVG 1.1//EN" "http://www.w3.org/Graphics/SVG/1.1/DTD/svg11.dtd">
<svg version="1.1" id="Layer_2" xmlns="http://www.w3.org/2000/svg" xmlns:xlink="http://www.w3.org/1999/xlink" x="0px" y="0px"
	 width="36.005px" height="72.01px" viewBox="0 0 36.005 72.01" enable-background="new 0 0 36.005 72.01" xml:space="preserve">
<path fill="#DB7777" d="M0,0v36.005h36.005V0H0z M26.668,18.002l-16.5,10.503c0,0-0.832-0.166-0.832-1.333s0-9.17,0-9.17
	s0-8.003,0-9.17S10.168,7.5,10.168,7.5L26.668,18.002L26.668,18.002z"/>
<path fill="#DD1F1F" d="M0,36.005V72.01h36.005V36.005H0z M26.668,54.008l-16.5,10.503c0,0-0.832-0.166-0.832-1.334
	c0-1.166,0-9.169,0-9.169s0-8.004,0-9.17c0-1.168,0.832-1.334,0.832-1.334L26.668,54.008L26.668,54.008z"/>
</svg>
